<?xml version="1.0" encoding="UTF-8"?>
<svg id="Layer_2" data-name="Layer 2" xmlns="http://www.w3.org/2000/svg" viewBox="0 0 3201.54 2139.15">
  <defs>
    <style>
      .cls-1 {
        stroke-width: .5px;
      }

      .cls-1, .cls-2, .cls-3, .cls-4, .cls-5, .cls-6, .cls-7, .cls-8, .cls-9, .cls-10, .cls-11 {
        stroke-miterlimit: 10;
      }

      .cls-1, .cls-3, .cls-4 {
        fill: #00554f;
        stroke: #00554f;
      }

      .cls-12 {
        opacity: .5;
      }

      .cls-2 {
        stroke: #ff931e;
      }

      .cls-2, .cls-5, .cls-6, .cls-7, .cls-8, .cls-9, .cls-11 {
        fill: none;
      }

      .cls-2, .cls-5, .cls-6, .cls-11 {
        stroke-width: 6px;
      }

      .cls-3 {
        stroke-width: .75px;
      }

      .cls-4 {
        stroke-width: 2px;
      }

      .cls-5 {
        stroke: #7ac943;
      }

      .cls-6 {
        stroke: #ff1d25;
      }

      .cls-13 {
        fill: #ffc107;
      }

      .cls-13, .cls-14, .cls-15 {
        stroke-width: 0px;
      }

      .cls-7 {
        stroke: #c2ff74;
      }

      .cls-7, .cls-8, .cls-16, .cls-10 {
        stroke-width: 5px;
      }

      .cls-8 {
        stroke: #0071bc;
      }

      .cls-16 {
        font-family: MiriamMonoCLM-Bold, 'Miriam Mono CLM';
        font-size: 351px;
        font-weight: 700;
        letter-spacing: .17em;
      }

      .cls-16, .cls-10 {
        fill: #003f39;
        stroke: #2ff;
      }

      .cls-14 {
        fill: #35373c;
      }

      .cls-9 {
        stroke: #644fef;
        stroke-width: 7px;
      }

      .cls-11 {
        stroke: #3fa9f5;
      }

      .cls-15 {
        fill: #daa747;
      }
    </style>
  </defs>
  <g id="Layer_1-2" data-name="Layer 1">
    <g>
      <path class="cls-10" d="M2118.66,619.69c0,98.74.02,197.48-.02,296.21,0,19.7,1.33,15.78-14.49,25.19-79.49,47.29-158.97,94.61-238.53,141.8-84.44,50.09-168.97,100.04-253.46,150.05-2.22,1.32-4.42,2.67-6.67,3.95-3.45,1.95-6.85,1.85-10.26-.24-3.09-1.89-6.27-3.61-9.38-5.46-113.31-67.25-226.64-134.47-339.93-201.76-51.09-30.34-102.11-60.81-153.16-91.22-1.77-1.06-3.47-2.26-5.31-3.2-4.22-2.16-5.63-5.7-5.53-10.21.09-4.13-.06-8.27-.06-12.41.05-194.38.03-388.75.23-583.13.03-25.71-3.71-18.83,18.61-32.1,77.28-45.95,154.66-91.73,232.03-137.55,72.47-42.92,144.98-85.78,217.46-128.7,14.67-8.69,29.32-17.42,43.87-26.31,4.44-2.71,8.32-2.94,12.81-.01,7.35,4.8,14.96,9.2,22.52,13.68,90.72,53.69,181.45,107.36,272.16,161.05,63.14,37.37,126.28,74.76,189.41,112.15,5.34,3.16,10.35,7.02,15.98,9.48,9.54,4.16,11.74,11,11.71,20.96-.34,99.25-.21,198.51-.21,297.77h.19ZM1158.71,528.94c0,52.22-.13,104.44.06,156.66.07,20.25-3.23,17.71,16.19,29.28,32.85,19.58,65.88,38.86,98.74,58.42,102.58,61.07,205.11,122.21,307.67,183.3,4.44,2.64,8.99,5.1,13.43,7.74,3.92,2.33,7.68,2.44,11.65,0,4.84-2.98,9.84-5.69,14.72-8.6,106.57-63.47,213.13-126.95,319.7-190.41,4.88-2.91,9.78-5.81,14.79-8.48,4.7-2.51,6.95-1.39,6.99,3.72.2,24.81.13,49.63.37,74.45.05,5.4-2.45,8.6-6.82,11.11-10.76,6.17-21.48,12.4-32.14,18.74-103.51,61.54-207,123.1-310.49,184.66-2.67,1.59-5.32,3.18-8.03,4.7-3.45,1.93-6.91,1.8-10.3-.2-2.22-1.31-4.45-2.62-6.67-3.94-35.99-21.37-71.99-42.73-107.98-64.12-100.86-59.93-201.7-119.86-302.56-179.78-4-2.37-8.01-4.74-12.14-6.86-4.52-2.31-6.91-.98-6.97,4.19-.19,19.64-.48,39.3-.13,58.93.53,29.55-5.22,23.15,22.54,39.64,69.32,41.17,138.8,82.06,208.15,123.17,65.35,38.74,130.57,77.72,195.98,116.35,17.69,10.45,12.9,10.36,30.32.12,45-26.46,89.74-53.34,134.63-79.98,92-54.6,184.03-109.15,276.04-163.73,3.56-2.11,7.06-4.31,10.59-6.45,3.37-2.05,5.04-5.05,5.14-8.97.08-3.1.25-6.2.25-9.3-.05-81.69-.08-163.38-.23-245.07-.03-16.01-.6-16.27-15.14-7.7-41.41,24.4-82.76,48.9-124.12,73.37-3.56,2.1-7.03,4.36-10.64,6.36-3.84,2.13-6.01,1.05-6.16-2.99-.15-4.13-.13-8.27-.13-12.41,0-73.42.12-146.83-.08-220.25-.07-24.87,4-20.1-18.9-33.93-31.41-18.97-63.06-37.54-94.58-56.32-54.17-32.27-108.37-64.48-162.4-96.97-6.59-3.96-11.88-4.06-18.42,0-18.44,11.44-37.22,22.35-55.87,33.45-67.07,39.9-134.25,79.61-201.16,119.77-23.67,14.21-19.92,7.92-19.99,34.79-.19,67.21,0,134.43.02,201.64,0,9.31.02,18.61-.18,27.92-.13,5.76-1.78,6.81-6.47,4.4-3.67-1.89-7.25-3.98-10.79-6.11-14.63-8.77-29.24-17.56-43.83-26.4-17.04-10.33-15.26-7.53-15.28-26.6-.06-74.45-.05-148.9.1-223.35.04-20.11-2.54-16.55,16.05-27.61,108.79-64.79,217.57-129.6,326.46-194.2,24.01-14.25,15.62-14.35,39.52-.19,109.37,64.81,218.57,129.91,327.75,195.05,17.57,10.48,14.82,6.59,14.91,26.63.2,43.43.09,86.86.11,130.29,0,4.14-.05,8.28.15,12.4.27,5.9,2.33,6.92,8.08,3.97,3.22-1.65,6.33-3.5,9.45-5.32,16.07-9.38,32.11-18.8,48.19-28.16,14.36-8.35,13.2-7.59,13.46-23.02.09-5.69.1-11.37.11-17.06.1-38.26.32-76.52.24-114.78-.05-24.93,3.09-20.76-19.04-33.96-75.89-45.28-151.93-90.32-227.96-135.35-57.8-34.24-115.67-68.37-173.57-102.46-7.06-4.15-14.46-7.71-21.71-11.55-7.27,3.86-14.71,7.43-21.8,11.62-84.55,49.93-169.09,99.88-253.56,149.96-51.12,30.31-102.16,60.74-153.11,91.33-14.61,8.77-13.14,7.03-13.17,23.17-.09,53.77-.03,107.54-.03,161.31Z"/>
      <path class="cls-10" d="M1806.95,620.84c0,37.22,0,74.44,0,111.66,0,3.62-.28,7.26.02,10.85.48,5.92-2.17,9.6-7.18,12.45-11.67,6.65-23.18,13.59-34.72,20.46-50.16,29.89-100.28,59.85-150.48,89.68-15.34,9.12-12.29,9.2-27.6.1-59.52-35.38-118.97-70.88-178.44-106.34-2.22-1.32-4.34-2.83-6.64-3.98-5.17-2.6-7.51-6.63-7.34-12.45.19-6.2-.09-12.4-.08-18.61.1-72.89.21-145.78.33-218.67,0-3.62.19-7.24.04-10.85-.19-4.64,1.81-7.79,5.73-10.12,8.88-5.29,17.63-10.79,26.51-16.08,53.72-32,107.45-63.97,161.18-95.94,1.33-.79,2.73-1.49,3.97-2.41,5.67-4.21,10.89-4.05,17.04-.14,14.39,9.14,29.22,17.57,43.85,26.35,46.97,28.18,93.9,56.42,140.89,84.57,14.75,8.84,12.95,7.58,12.99,23.17.1,38.77.03,77.54.03,116.31-.03,0-.06,0-.09,0ZM1730.21,620.64h.05c0-22.2.14-44.41-.04-66.61-.19-22.95,3.44-18.92-17.42-31.74-33.42-20.54-67.2-40.48-100.83-60.68-1.77-1.06-3.6-2.03-5.33-3.15-3.86-2.48-7.65-2.66-11.57-.1-2.16,1.41-4.5,2.53-6.71,3.86-34.95,21.01-69.89,42.02-104.83,63.05-2.65,1.6-5.22,3.33-7.86,4.96-3.35,2.07-5,5.08-5.08,8.99-.06,3.1-.18,6.19-.18,9.29.03,46.99.07,93.98.12,140.97,0,3.1.2,6.2.11,9.29-.17,5.66,1.78,10.04,6.99,12.74,1.83.95,3.54,2.12,5.31,3.19,35.38,21.29,70.75,42.59,106.14,63.87,2.21,1.33,4.49,2.54,6.72,3.85,3.45,2.02,6.81,1.88,10.2-.2,7.04-4.32,14.09-8.62,21.17-12.87,29.65-17.8,59.34-35.53,88.97-53.37,15.95-9.6,13.98-7.08,14.06-25.63.11-23.24.03-46.47.03-69.71Z"/>
    </g>
    <text class="cls-16" transform="translate(688.73 1529.04)"><tspan x="0" y="0">NextSSL</tspan></text>
    <g class="cls-12">
      <g>
        <path class="cls-3" d="M1301.67,1944.45c-.17-3.44-.34-6.88-.52-10.32-.02-.99-.05-1.99-.07-2.98-.02-.76-.04-1.52-.06-2.28,0-1.49,0-2.97,0-4.46.25-3.68.5-7.35.75-11.03,1.05-4.78,2.2-9.51,4.27-13.98,5.99-12.89,16.47-19.72,30.19-21.46,16.14-2.05,30.05,2.09,39.69,16.27,2.34,3.44,3.66,7.35,5.18,11.17,3.31,11.88,3.47,24.04,3.28,36.24-.02,1.53.09,3.06.13,4.59-.15,1.37-.31,2.74.3,4.05.31,6.3,2.09,12.2,4.77,17.86.78,1.63,1.3,3.39,2.59,4.75,0,0-.02-.02-.02-.02.29.52.58,1.03.86,1.55,0,0,.1.2.1.2.65.94,1.29,1.87,1.94,2.81,2.72,3.83,5.45,7.66,8.17,11.49,1.22,1.81,2.44,3.63,3.65,5.44,0,0,.08.14.08.14.61.85,1.22,1.71,1.84,2.56,2.62,3.97,5.24,8.02,7.49,12.12,1.76,3.2,3.29,6.92,4.29,10.7,1.54,5.88,3.61,11.61,4.54,17.67,1.03,6.71.74,13.33-.5,19.96-.51,1.49-1.02,2.98-1.53,4.47-1.33.84-2.35.77-2.81-.96,3.28-9.69,2.84-19.49.56-29.25-3.74-16.02-12.06-29.79-21.68-42.83-7.56-10.25-14.75-20.62-16.93-33.55-.1-.35-.2-.7-.3-1.05-.2-1.73-.4-3.46-.6-5.19-.03-1.73-.05-3.46-.08-5.19.18-7.88.55-15.77-.58-23.63-.1-.82-.21-1.64-.31-2.46-.3-4.34-1.21-8.55-2.78-12.62-.8-2.9-1.97-5.64-3.64-8.16-.15-.25-.3-.49-.44-.74l-.03-.04c-1.4-2.76-3.4-5.01-5.8-6.93-2.34-2.42-5.03-4.3-8.22-5.45-.59-.28-1.19-.56-1.78-.84-1.33-.42-2.66-.85-3.99-1.27-3.55-1.26-7.21-1.57-10.95-1.28-.96.02-1.92.04-2.88.07-1.18-.12-2.35-.15-3.48.34-.29.07-.59.13-.88.2-3.14.36-6.15,1.2-8.99,2.59-.87.43-1.75.85-2.62,1.28-2.32.86-4.29,2.24-6.03,3.97-.38.32-.77.64-1.15.96-6,5.21-9.11,12.01-10.76,19.61-.15.67-.3,1.34-.44,2.01-1.08,4.03-1.26,8.15-1.16,12.29-.59,12.27,1.58,24.56-.17,36.82-.23.92-.42,1.85-.71,2.76-1.21,3.85-1.67,7.99-4.41,11.24-.08.14-.12.29-.11.46-.08.17-.17.35-.25.52-.97.11-1.86.05-2.32-1.02-.47-.77.22-1.25.45-1.85.71-.09.97-.53.94-1.2.75-2.68,2.07-5.2,2.3-8.03,1.71-6.26,2.29-12.61,1.62-19.07Z"/>
        <path class="cls-3" d="M1367.4,2123.14c-.73.01-1.45.02-2.18.03-10.45-.64-20.72-4.59-31.3-2.29-5.12,1.11-10.33,1.65-15.4,2.94-.92-.14-1.84-.28-2.76-.42-.67-1.41.13-2.3,1.1-3.14,1.03-.1,2.07-.17,3.1-.3,7.39-.91,14.64-2.93,22.19-2.71,8.16.23,16.05,2.69,24.22,2.76,1.23.75,1.41,1.84,1.03,3.13Z"/>
        <path class="cls-4" d="M1265.48,2054.01c-.8,1.44-1.78,2.28-3.39,1.03-.05-1.69.16-3.44-.59-4.04.66-11.34,3.27-21.62,7.14-32.06.88-.36,1.41-1.73,2.1-3.09,3.25-6.4,6.01-13.17,10.11-18.99,3.78-5.36,7.87-10.55,11.53-16.03,1.37-2.05,2-4.58,3.99-6.24.46,1.06,1.35,1.13,2.32,1.02-.72,3.23-2.53,5.92-4.35,8.59-6.74,9.9-13.94,19.5-19.18,30.34-6.02,12.47-10.47,25.33-9.67,39.47Z"/>
        <path class="cls-14" d="M1297.76,1971.55c.03.67-.23,1.11-.94,1.2-.36-.93.5-.9.94-1.2Z"/>
        <path class="cls-15" d="M1416.11,2061.67c1.39-.23,2.78-.46,4.17-.68.46,1.73,1.48,1.8,2.81.96,6.51,3.38,7.98,9.62,8.98,16.04.65,4.16,3.2,6.98,5.89,9.91,3.29,3.58,6.47,7.38,4.68,12.88-.98-.19-2.3.29-2.55-1.31,0-1.1,0-2.19,0-3.29-.1-.19-.19-.39-.29-.58-1.07-2.06-2.69-3.67-4.32-5.27-4.03-3.92-6.45-8.6-7.42-14.18-1.59-9.22-3.43-10.73-12.75-11.28l.79-3.2Z"/>
        <path class="cls-14" d="M1299.05,1974.64c.03.17,0,.32-.11.45-.01-.16.02-.31.11-.45Z"/>
        <path class="cls-13" d="M1306.63,2094.79c.61,2.53,3.24,3.71,4.06,6.09.83,2.09,2.21,3.77,3.94,5.18,1.8,4.57,2.55,9.31,2.23,14.21-.97.84-1.77,1.73-1.1,3.14-2.88,3.02-5.09,6.72-9.19,8.49-8.89,3.85-17.38,1.83-25.54-1.99-9.39-4.39-19.08-7.38-29.39-8.52-3.81-.42-7.5-1.58-10.92-3.41-4.41-2.36-6.63-6.81-4.62-11.36,2.95-6.69,2.66-13.34,1.52-20.25-1.22-7.42,1.51-12.24,8.65-14.44,6.41-1.98,11.37-5.19,15.15-10.96,6.29-9.59,16.85-7,23.18,1.34,5.18,6.83,8.36,14.88,13.27,21.87,1.96,2.8,3.44,6.01,6.43,7.99-.11,1.67.95,2.28,2.34,2.61ZM1296.32,2130.74c5.54.02,10.21-1.14,13.55-5.28,5.29-6.56,5.03-13.63-.84-21.3-5.94-7.76-12.51-15.05-17.26-23.68-3.15-5.71-6.24-11.46-10.13-16.72-5.44-7.36-13.23-7.56-18.23-.17-3.61,5.34-8.17,8.84-14.41,10.69-7.72,2.28-9.33,5.43-7.93,13.37,1,5.63,1.54,11.27-.84,16.7-3.14,7.19-1.64,10.28,6.85,12.95,1.09.34,2.24.56,3.38.68,11.56,1.26,22.5,4.56,33,9.54,4.16,1.97,8.55,3.48,12.86,3.23Z"/>
        <path class="cls-4" d="M1306.63,2094.79c-1.38-.33-2.45-.94-2.34-2.61,7.03-1.41,8.66-5.02,4.94-11.25-2.7-4.53-6.75-7.81-10.95-10.82-5.38-3.85-10.75-7.67-14.87-12.95-.18-.23-.65-.24-.98-.35-10.36-18.79-3.87-35.7,5.91-52.18.97-1.63,1.42-4.1,4.11-4.2,1.54,1.75.13,2.94-.61,4.15-4.97,8.14-9.39,16.52-10.9,26.09-2.1,13.39,1.7,24.42,13.01,32.5,5.45,3.9,11.1,7.59,15.5,12.79,1.37,1.62,2.61,3.31,3.5,5.25,3.11,6.8.9,11.56-6.32,13.59Z"/>
        <path class="cls-13" d="M1440.09,2099.47c.25,1.6,1.57,1.12,2.55,1.31-.26.55-.52,1.1-.78,1.65-.18.22-.36.44-.53.66,0,0,.07,0,.06,0-1.24-.07-1.26.79-1.26,1.66-.2.19-.4.38-.6.57-.53.05-.97.22-1.09.82-3.06,3.26-7.28,4.57-11.14,6.37-6.41,3-12.28,6.68-17.29,11.7-4.08,4.1-8.44,7.87-13.73,10.35-10.17,4.77-24.46,1.63-28.89-11.4.38-1.28.2-2.38-1.04-3.13.21-4.86,1.14-9.59,2.32-14.31.59-2.37,2.07-4.54,1.72-7.13,1.03-1.45,2.36-2.82,1.1-4.79,1.82-5.31,1.67-10.89,2.15-16.37.37-4.29.53-8.6,2.29-12.61,1.92-4.39,4.63-7.94,9.93-8.36.03,1.23.06,2.46.09,3.69-2.32,0-3.65,1.53-4.79,3.22-1.58,2.34-2.58,4.95-2.88,7.76-.67,6.29-1.17,12.6-1.91,18.88-.94,7.95-4.09,15.37-5.74,23.15-2.38,11.2,5.11,20.19,16.51,20.02,5.88-.09,10.8-2.59,14.92-6.55,7.86-7.58,16.37-14.11,26.42-18.63,4.37-1.96,9.22-3.66,11.59-8.51Z"/>
        <path class="cls-4" d="M1309.93,1966.98c.17-1.31.35-2.62.52-3.93,1.66-.14,2.43.88,2.94,2.24-.12,1.51-.24,3.02-.37,4.53-2.03,15.07-8.39,28.6-15.04,42.01-5.43,10.95-8.76,22.46-9.38,34.71-.05.94.12,1.95-.83,2.81-2.3.42-2.21-1.23-2.18-2.8.22-11.71,3.41-22.68,8.24-33.23,5.42-11.83,11.76-23.29,14.69-36.13.77-3.35,1.46-6.73,1.4-10.21Z"/>
        <path class="cls-4" d="M1366.84,1971.01c3,11.6,8.24,22.26,13.86,32.75,6.01,11.21,11.48,22.61,12.57,35.55.13,1.49.95,3.3-1.1,4.22-1.52-.21-1.54-1.36-1.65-2.4-1.18-11.45-5.1-22-10.57-32.03-6.94-12.73-13.14-25.78-17-39.82-.4-2.35-.8-4.7-1.21-7.05.7-.56,1.39-1.13,2.09-1.69.55,1.78,1.1,3.57,1.65,5.35.29,1.13.59,2.26.88,3.39l.47,1.73Z"/>
        <path class="cls-1" d="M1385.96,2060.13c-.03-1.23-.06-2.46-.09-3.69,1.01-7.49,5.57-10.82,13.05-9.53,3.82.66,7.41,1.94,10.79,3.82,4.28,2.38,6.88,5.76,6.4,10.94-.26,1.07-.53,2.14-.79,3.2-3.77,3.54-7.63,6.92-12.78,8.41-6.9,2-12.02-.09-14.6-6.3-.91-2.18-1.34-4.56-1.99-6.85ZM1396.61,2049.81c-3.18-.17-5.71.88-7.02,3.92-1.75,4.05.29,12.6,3.57,15.55,1.73,1.56,3.8,1.79,5.92,1.54,4.76-.57,8.73-2.81,11.92-6.3,2.94-3.23,2.7-7.23-.85-9.75-4-2.84-8.49-4.77-13.53-4.96Z"/>
        <path class="cls-3" d="M1370.41,2098.57c-17.11,13.59-35.8,15.35-55.78,7.48-1.73-1.41-3.11-3.09-3.94-5.18,7.08,3.53,14.41,6.15,22.4,6.73,14.87,1.07,27.46-4.08,38.42-13.82,1.26,1.97-.06,3.35-1.1,4.79Z"/>
        <path class="cls-3" d="M1337.84,1921.55c5.15-7.65,8.61-9.14,17.17-7.41,1.25.79,2.51,1.58,3.76,2.36.8.88,1.6,1.76,2.4,2.64,1.61,2.48,2.46,5.28,3.34,8.07.06.38.12.77.18,1.15.12.96.25,1.92.37,2.88-.22,3.57-.84,7.05-2.33,10.33-.59.79-1.18,1.58-1.77,2.37-1.45,1.01-2.42.78-2.79-1.06,4.33-5.72,4.78-11.95,2.3-18.48-2.01-5.3-6.2-8.28-11.01-8.08-4.25.17-8.19,3.67-9.6,9.01-.8,3.02-1.03,6.2-1.51,9.31-.78-.2-1.57-.39-2.35-.59.07-2.42.13-4.85.2-7.27.18-.78.37-1.56.55-2.34.37-.96.73-1.92,1.1-2.88Z"/>
        <path class="cls-4" d="M1384.89,1998.04c.52-1,.96-1.47,1.69-1.56,12.49,7.51,22.02,38.72,14.64,47.88-1.09.34-1.55-.37-2.01-1.1,2.28-8.32,1.71-16.43-1.23-24.38-2.9-7.84-7.62-14.57-13.09-20.84Z"/>
        <path class="cls-3" d="M1310.57,1946.04c-3.03-6.09-5.18-12.32-3.65-19.3.58-2.66,1.61-5.09,3.04-7.37.78-.72,1.57-1.44,2.35-2.17.37-.23.75-.45,1.12-.68,2-.77,4.08-.88,6.19-.8.58.21,1.16.42,1.74.63,2.57,1.61,4.49,3.8,5.93,6.46.14.31.29.63.43.94.53,2.69,1.05,5.39,1.58,8.08-.18.75-.35,1.49-.53,2.24-.66.18-1.32.36-1.98.55-.78-3.04-.57-6.23-1.77-9.23-1.69-4.2-4.53-6.88-7.65-6.78-3.18.11-6.38,3.2-7.31,7.5-1.33,6.11-.56,11.98,2.75,17.4.21,1.68-.65,2.42-2.23,2.52Z"/>
        <path class="cls-3" d="M1343.14,1936.46c-.17-2.8-.11-5.56,1.41-8.06,1.18-1.93,2.81-3.11,5.16-3.01,2.4.09,3.96,1.49,4.78,3.55,1.74,4.34,1.51,8.59-1.14,12.58-1.37.24-2.7.39-2.99-1.51,2.34-2.81,2.72-5.98,1.68-9.39-.38-1.24-1-2.32-2.51-2.36-1.46-.03-2.24.96-2.77,2.13-1.21,2.66-.79,5.41-.33,8.15-1.42-.19-2.61-.73-3.3-2.08Z"/>
        <path class="cls-3" d="M1315.34,1941.94c-2.16-3.25-3.1-6.76-2.07-10.62.57-2.13,1.56-4.04,4.06-4.24,2.45-.19,3.8,1.43,4.8,3.43.93,1.85,1.01,3.86,1.1,5.87-.57,1.16-1.28,2.13-2.76,2.09-.57-3.01.64-6.62-2.99-8.9-3.06,3.73-1.31,7.27-.02,10.81-.19,1.22-.71,1.99-2.12,1.57Z"/>
        <g>
          <path class="cls-15" d="M1328.77,1934.07c2.41-.01,4.82-.02,7.22-.03.78.2,1.57.39,2.35.59,1.48.93,3.01,1.72,4.8,1.83.69,1.35,1.88,1.89,3.3,2.08,1.23.72,2.28,1.89,3.93,1.47.29,1.9,1.61,1.75,2.99,1.51,1.49.86,2.97,1.73,4.8,1.36.37,1.84,1.34,2.07,2.79,1.06-.11.76.3,1.28.82,1.73,4.29,3.69,4.81,8.02,2.28,12.94-.28.54-.15,1.28-.22,1.93-.7.56-1.4,1.13-2.09,1.69-4.63,2.39-9.29,4.71-13.87,7.19-3.27,1.77-6.13,4.27-9.8,5.33-7.11,2.05-12.92-.25-18.1-5.14-1.91-1.8-3.8-3.78-6.58-4.34-.51-1.36-1.29-2.38-2.94-2.24-.8-1.06-1.66-2.09-2.4-3.19-3.3-4.86-2.59-8.66,2.52-13.82,1.58-.11,2.44-.84,2.23-2.52,1.31.22,2.07-.45,2.55-1.57,1.4.41,1.93-.35,2.12-1.57,1.46.09,2.2-.97,3.01-1.91,1.48.05,2.19-.93,2.76-2.08,1.59.23,2.54-.82,3.56-1.75.66-.18,1.32-.36,1.98-.55ZM1332.7,1972.16c1.73.12,3.33-.17,4.84-.84,7.19-3.21,13.73-7.61,20.61-11.39,2.9-1.6,4.55-4.11,4.2-7.57-.34-3.31-2.91-4.72-5.55-5.58-5.61-1.81-10.75-4.53-15.91-7.29-5.65-3.02-11.24-2.88-16.56.79-3.78,2.61-7.54,5.28-11.14,8.13-5.39,4.27-5.2,8.85.62,12.69,3.77,2.49,7.33,5.21,10.77,8.13,2.33,1.98,5.02,3.18,8.12,2.93Z"/>
          <path class="cls-15" d="M1310.8,1954.53c1.99-2.06,2.94-.7,3.84-.09,2.39,1.59,4.61,3.43,7.01,5,6.58,4.31,13.27,3.36,19.98.29,5.05-2.31,9.64-5.43,14.28-8.27,1.95,1.16,1.25,2.3.16,3.04-8.01,5.51-16.14,11.01-26.42,10.63-7.95-.29-13.06-5.87-18.86-10.59Z"/>
        </g>
      </g>
      <g>
        <path class="cls-8" d="M123.14,2115.03c-34.97,0-69.94-.03-104.91.02-8.37.01-15.72-6.64-15.72-15.72-.02-61.54-.01-123.08,0-184.62,0-8.57,7.11-15.64,15.65-15.64,69.94,0,139.87.03,209.81-.03,7.58,0,14.79,5.49,15.85,14.07.07.59.04,1.2.04,1.8,0,61.43,0,122.87,0,184.3,0,7.88-5.43,14.29-13.18,15.63-.85.15-1.68.17-2.52.17-35,0-70.01,0-105.01,0h0ZM8.84,2007c0,30.6,0,61.19,0,91.79,0,5.87,4.03,9.9,9.9,9.9,38.89,0,77.78,0,116.66,0,.21,0,.42-.01.63,0,.66.05.95-.06.76-.87-.46-1.88-.77-3.79-1.18-5.68-1.81-8.46-3.17-17-4.19-25.59-.09-.72-.41-.93-1.11-.92-1.65.04-3.31.17-4.96.18-5.78.02-11.54-.2-17.3-.74-3.36-.31-6.72-.69-10.05-1.21-5.63-.88-11.2-2.07-16.71-3.53-7.74-2.06-15.29-4.68-22.65-7.84-6.68-2.87-13.12-6.21-19.37-9.93-.58-.35-.62-.58-.27-1.14,1.49-2.31,2.94-4.64,4.39-6.98.35-.56.69-.55,1.21-.22,2.75,1.73,5.61,3.25,8.49,4.74,8.7,4.48,17.75,8.11,27.15,10.86,5.75,1.68,11.56,3.04,17.48,4,4.79.78,9.6,1.38,14.44,1.74,5.71.43,11.41.35,17.12.34.71,0,.93-.32.88-.98-.1-1.09-.13-2.18-.25-3.26-.63-5.57-.82-11.16-.96-16.75-.21-8.64-.2-17.28.19-25.92.07-1.44.04-2.9.25-4.32.15-1.04-.24-1.08-1.04-1.07-9.21.02-18.42.01-27.63.01-1.6,0-1.65-.09-1.43-1.68.29-2.12.53-4.25.8-6.38.51-3.97.95-7.96,1.58-11.91.82-5.14,1.67-10.27,2.61-15.38,1.41-7.71,3.02-15.39,4.81-23.02,1.57-6.68,3.32-13.32,5.2-19.91,2.76-9.66,5.79-19.22,9.2-28.67.44-1.22.45-1.23-.82-1.23-34.83,0-69.66,0-104.49,0-.42,0-.85.02-1.26.1-5.17,1.02-8.1,4.6-8.1,9.91,0,30.52,0,61.05,0,91.57ZM237.52,2007.05c0-30.52,0-61.05,0-91.57,0-6.06-4.02-10.07-10.08-10.07-30.52,0-61.05,0-91.57-.03-1,0-1.38.33-1.71,1.23-5.8,15.93-10.7,32.13-14.72,48.61-2.34,9.61-4.37,19.29-6.04,29.04-1.03,6-1.99,12.01-2.76,18.05-.18,1.42-.2,1.42,1.24,1.42,9.03,0,18.07,0,27.1,0,.21,0,.42,0,.64,0,.49-.02.72.17.66.69-.08.84-.11,1.69-.19,2.53-.69,7.2-1,14.42-1.18,21.64-.24,10.09.13,20.17.82,30.24.12,1.79.32,3.58.47,5.37.05.57.19.81.91.72,2.55-.31,5.09-.69,7.63-1.1,12.26-2.03,24.06-5.62,35.45-10.57,6.02-2.61,11.85-5.62,17.48-9,.44-.26.78-.55,1.19.12,1.48,2.4,3,4.78,4.54,7.14.33.5.17.73-.27.98-.83.47-1.64.97-2.46,1.45-13.22,7.59-27.21,13.29-42.01,16.97-6.67,1.66-13.41,2.93-20.24,3.67-.89.1-1.14.44-1,1.28.3,1.84.56,3.69.81,5.54,1.21,8.83,2.89,17.57,4.81,26.26.19.85.52,1.03,1.32,1.03,26.43-.02,52.86-.02,79.29-.01.96,0,1.9-.12,2.82-.36,4.37-1.13,7.07-4.84,7.07-9.71,0-30.52,0-61.05,0-91.57Z"/>
        <path class="cls-8" d="M56.27,1957.89c0-5.08.02-10.15-.02-15.23,0-.84.24-1.09,1.07-1.07,2.61.05,5.22.04,7.82,0,.78-.01,1.12.14,1.11,1.04-.03,10.19-.03,20.37,0,30.56,0,.84-.24,1.09-1.08,1.08-2.61-.05-5.22-.05-7.82,0-.91.02-1.11-.31-1.1-1.16.03-5.08.02-10.15.02-15.23Z"/>
        <path class="cls-8" d="M190.08,1958.04c0,5.11-.02,10.23.02,15.34,0,.81-.23,1.02-1.01,1.01-2.72-.04-5.43-.03-8.15,0-.72,0-.99-.21-.99-.96.02-10.34.02-20.67,0-31.01,0-.56.12-.82.76-.82,2.86.03,5.71.04,8.57,0,.82-.01.8.42.8.99,0,5.15,0,10.3,0,15.45Z"/>
      </g>
      <g>
        <path class="cls-8" d="M1883.43,1938.03c8.03,0,15.17,1.93,22.22,4.35,6.16,2.12,12.18,4.66,18.62,5.91,6.66,1.29,13.18.86,19.62-1.31,7.45-2.52,14.62-5.87,22.34-7.54,23.08-4.97,41.7,3.23,57.46,19.64,4.59,4.77,4.5,4.85-.74,8.6-34.8,24.87-29.59,80.42,9.29,98.36,2.74,1.27,3.07,2.22,1.89,4.87-8.42,18.94-18.89,36.54-32.95,51.87-3.44,3.75-7.35,6.95-11.76,9.52-8.42,4.92-17.2,5.6-26.25,2.04-3.97-1.56-7.77-3.57-11.75-5.11-13.19-5.09-26.38-4.81-39.48.38-3.55,1.41-7.01,3.05-10.55,4.49-10.5,4.27-20.46,3.05-29.89-3.08-7.29-4.73-12.96-11.13-18.06-18.03-16.59-22.42-27.86-47.17-32.25-74.83-3.05-19.27-3.18-38.52,4.41-56.81,9.05-21.83,24.87-36.58,48.28-42.29,3.28-.8,6.65-1.16,9.54-1.05ZM1830.44,2017.01c0,2.59-.18,5.19.03,7.76,2.44,30.7,13.78,57.96,32.1,82.47,4.33,5.79,9.13,11.15,15.3,15.09,6.13,3.91,12.59,4.55,19.33,1.83,3.23-1.3,6.39-2.78,9.59-4.17,12.25-5.3,24.96-6.29,38.01-3.97,7.07,1.25,13.46,4.33,19.86,7.36,8.03,3.8,15.49,2.93,22.44-2.52,1.85-1.45,3.68-2.98,5.32-4.67,11.53-11.8,19.83-25.8,27.46-40.27,1.25-2.37,1.13-3.52-1.31-5.28-22.58-16.24-31.86-38.59-29.1-65.96,1.6-15.82,8.68-29.16,20.26-40.07,1.19-1.12,2.44-1.96.41-3.62-8.96-7.33-18.86-12.07-30.7-12.2-10.08-.12-19.14,3.58-28.26,7.12-8.65,3.37-17.53,4.91-26.78,3.51-7.84-1.19-15.13-4.22-22.57-6.79-7.27-2.51-14.65-4.59-22.45-3.45-18.21,2.65-30.88,13.36-40.09,28.53-7.28,12.01-8.93,25.53-8.85,39.3Z"/>
        <path class="cls-8" d="M1923.22,1930.48c1.6-17.75,10.55-33.08,26.85-44.06,6.49-4.37,13.62-7.24,21.34-8.8,2.97-.6,3.78.32,3.91,3.05.62,13.58-3.6,25.68-11.32,36.63-8.02,11.38-18.68,19.16-32.51,21.64-9.54,1.71-7.79,1.13-8.26-8.45ZM1963.09,1892.04c-1.11-.34-1.94.36-2.8.82-12.45,6.62-20.63,16.76-24.75,30.2-.32,1.03-1.21,2.33-.31,3.17.94.88,2.09-.25,3.03-.7,13.27-6.41,20.74-17.47,24.86-31.18.22-.73.4-1.54-.04-2.3Z"/>
      </g>
      <g>
        <path class="cls-6" d="M619.95,1900.72v100.65c0,.9.73,1.63,1.63,1.63h112.4c.9,0,1.63-.73,1.63-1.63v-100.65c0-.9-.73-1.63-1.63-1.63h-112.4c-.9,0-1.63.73-1.63,1.63ZM725.3,1995.2h-95.04c-.9,0-1.63-.73-1.63-1.63v-85.05c0-.9.73-1.63,1.63-1.63h95.04c.9,0,1.63.73,1.63,1.63v85.05c0,.9-.73,1.63-1.63,1.63Z"/>
        <path class="cls-5" d="M743.59,1900.68v100.65c0,.9.73,1.63,1.63,1.63h112.4c.9,0,1.63-.73,1.63-1.63v-100.65c0-.9-.73-1.63-1.63-1.63h-112.4c-.9,0-1.63.73-1.63,1.63ZM848.94,1995.15h-95.04c-.9,0-1.63-.73-1.63-1.63v-85.05c0-.9.73-1.63,1.63-1.63h95.04c.9,0,1.63.73,1.63,1.63v85.05c0,.9-.73,1.63-1.63,1.63Z"/>
        <path class="cls-11" d="M619.96,2012.77v100.65c0,.9.73,1.63,1.63,1.63h112.4c.9,0,1.63-.73,1.63-1.63v-100.65c0-.9-.73-1.63-1.63-1.63h-112.4c-.9,0-1.63.73-1.63,1.63ZM725.31,2107.25h-95.04c-.9,0-1.63-.73-1.63-1.63v-85.05c0-.9.73-1.63,1.63-1.63h95.04c.9,0,1.63.73,1.63,1.63v85.05c0,.9-.73,1.63-1.63,1.63Z"/>
        <path class="cls-2" d="M743.6,2012.72v100.65c0,.9.73,1.63,1.63,1.63h112.4c.9,0,1.63-.73,1.63-1.63v-100.65c0-.9-.73-1.63-1.63-1.63h-112.4c-.9,0-1.63.73-1.63,1.63ZM848.95,2107.2h-95.04c-.9,0-1.63-.73-1.63-1.63v-85.05c0-.9.73-1.63,1.63-1.63h95.04c.9,0,1.63.73,1.63,1.63v85.05c0,.9-.73,1.63-1.63,1.63Z"/>
      </g>
      <g>
        <path class="cls-9" d="M3084.48,2115.01c-37.27,0-74.53,0-111.8.03-1.38,0-1.86-.25-1.86-1.78.04-70.8.04-141.59,0-212.39,0-1.48.4-1.81,1.83-1.81,28,.04,56,.05,84.01-.02,1.78,0,2.44.53,2.82,2.21,1.34,5.87,4.57,10.62,9.38,14.15,7.16,5.27,15.09,6.8,23.67,4.04,8.11-2.61,13.52-8.07,16.62-15.91.41-1.03.76-2.12.91-3.21.14-1.04.58-1.25,1.55-1.25,28.32.02,56.64.03,84.96-.01,1.27,0,1.45.42,1.45,1.55-.04,12.08-.02,24.17-.02,36.25,0,58.71,0,117.43.04,176.14,0,1.69-.46,2.05-2.09,2.05-37.16-.05-74.32-.04-111.48-.04ZM3068.15,2041.97c.1,0,.2-.01.31-.02.13.5.28.99.38,1.5,1.51,7.6,3,15.2,4.52,22.8,1.94,9.68,3.91,19.35,5.83,29.03.19.94.54,1.31,1.55,1.29,4.1-.06,8.2-.08,12.29,0,1.26.03,1.65-.49,1.87-1.58.55-2.65,1.14-5.29,1.77-7.92,1.89-7.89,3.83-15.77,5.71-23.67,1.86-7.79,3.66-15.6,5.51-23.39,1.82-7.64,3.66-15.27,5.54-22.9.24-.96.03-1.19-.92-1.18-4.15.04-8.3.04-12.46,0-.86,0-1.26.3-1.43,1.1-.74,3.59-1.5,7.17-2.25,10.76-1.2,5.77-2.4,11.53-3.61,17.3-1.23,5.87-2.45,11.74-3.74,17.59-.61,2.77-.99,5.61-2.03,8.72-.34-1.53-.6-2.63-.82-3.75-1.2-6.04-2.36-12.09-3.58-18.12-1.11-5.51-2.31-11.01-3.43-16.52-1.1-5.41-2.17-10.82-3.21-16.24-.14-.71-.48-.82-1.08-.82-4.1.01-8.2,0-12.3,0-.51,0-.9.04-1.03.7-.24,1.25-.6,2.47-.88,3.71-1.43,6.37-2.84,12.74-4.28,19.11-1.58,7.04-3.12,14.09-4.8,21.1-.78,3.28-1.2,6.64-2.37,10.04-.2-.75-.38-1.3-.48-1.87-2.04-10.85-4.08-21.7-6.11-32.55-1.19-6.37-2.35-12.74-3.5-19.11-.14-.79-.41-1.17-1.32-1.16-4.31.05-8.62.04-12.93,0-.92,0-1.07.3-.88,1.13.7,3.05,1.38,6.11,2.03,9.17,1.52,7.16,3,14.33,4.53,21.49,1.56,7.31,3.19,14.62,4.76,21.93,1.82,8.51,3.64,17.02,5.4,25.54.22,1.06.66,1.37,1.7,1.36,3.99-.05,7.99-.11,11.97.02,1.56.05,2.07-.45,2.36-1.93,1.33-6.61,2.78-13.19,4.2-19.77,1.58-7.31,3.17-14.62,4.77-21.92.8-3.66,1.61-7.33,2.41-10.99ZM3142.59,2015.97c-3.51,0-7.03.05-10.54-.03-1.09-.03-1.51.4-1.73,1.34-1.18,5.01-2.39,10.02-3.58,15.02-1.19,5.01-2.37,10.02-3.58,15.02-1.45,5.98-2.96,11.94-4.41,17.92-1.21,5-2.37,10.02-3.58,15.02-1.21,5-2.46,10-3.7,14.99-.23.94-.03,1.33,1.05,1.32,4.26-.05,8.52-.04,12.78,0,.76,0,1.13-.2,1.29-.99,1.09-5.14,2.26-10.26,3.31-15.41.23-1.11.49-1.6,1.77-1.59,8.09.07,16.18.06,24.27,0,1.11,0,1.59.32,1.88,1.38,1.42,5.17,2.94,10.3,4.35,15.47.25.94.68,1.14,1.55,1.13,4.31-.03,8.62-.05,12.94,0,1.18.02,1.3-.35,1-1.38-1.47-4.93-2.87-9.88-4.31-14.82-1.81-6.21-3.6-12.43-5.43-18.63-2.19-7.43-4.42-14.84-6.6-22.27-2.17-7.38-4.31-14.77-6.43-22.17-.3-1.03-.81-1.39-1.91-1.36-3.46.08-6.92.03-10.38.03Z"/>
        <path class="cls-9" d="M3133.22,2065.43c.97-4.55,1.87-8.96,2.85-13.35,1.12-5.02,2.32-10.03,3.43-15.06.2-.91.54-1.26,1.47-1.2,1.11.07,2.25.13,3.35-.01,1.39-.17,1.95.42,2.27,1.7,2.17,8.7,4.4,17.38,6.59,26.07.46,1.84.43,1.85-1.53,1.85-5.54,0-11.07,0-16.61,0h-1.82Z"/>
      </g>
      <g>
        <path class="cls-7" d="M2456.7,2094.72h-21.91s-.03-.01-.03-.03v-135.97s.01-.03.03-.03h135.77s.03.01.03.03v135.93s-.01.03-.03.03h-22.03s-.03.01-.03.03c0,1.29,0,2.47,0,3.64,0,9.03.02,18.06,0,27.09-.01,4.39-1.75,7.95-5.76,9.89-8.08,3.9-16.47-1.22-16.53-9.63-.07-9.8-.01-19.59-.01-29.39,0-.46,0-.93,0-1.49,0-.02-.01-.03-.03-.03h-47.12s-.03.01-.03.03c0,2.51,0,5.03,0,7.54,0,7.83.01,15.66,0,23.48-.01,6.06-4.6,10.46-10.64,10.76-5.83.29-10.04-3.69-11.11-7.6-.39-1.41-.5-2.93-.51-4.4-.04-9.56-.02-19.12-.02-28.67,0-.33,0-.65,0-1.18,0-.02-.01-.03-.03-.03ZM2565.22,2089.2s.03-.01.03-.03c0-.82,0-1.48,0-2.13,0-15.18,0-30.35,0-45.53,0-25.31,0-50.62.04-75.93,0-1.34-.4-1.69-1.7-1.68-8.84.06-17.67.03-26.51.04-31.89,0-63.78,0-95.67,0-.41,0-.82.04-1.27.07-.02,0-.03.01-.03.03v125.13s.01.03.03.03h125.08ZM2531.64,2094.72s-.03.01-.03.03v2.4c0,9.41,0,18.81,0,28.22,0,3.68,2.25,5.86,5.99,5.84,3.26-.02,5.53-2.42,5.53-5.88,0-9.79,0-19.58,0-29.37,0-.4-.05-.8-.08-1.21,0-.02-.01-.03-.03-.03h-11.38ZM2462.16,2094.77s-.03.01-.03.03c0,.73,0,1.38,0,2.03,0,9.51-.01,19.01,0,28.52,0,3.65,2.29,5.86,5.99,5.87,3.27,0,5.5-2.36,5.5-5.88,0-9.22,0-18.44,0-27.65,0-.94,0-1.87,0-2.88,0-.02-.01-.03-.03-.03h-11.43Z"/>
        <path class="cls-7" d="M2434.61,1955.41c-.33-21.99,8.32-39.54,25.7-53.34.01-.01.02-.03,0-.04-1.98-1.89-3.97-3.73-5.89-5.63-4.54-4.49-9.06-9-13.55-13.54-.61-.62-1.19-1.42-1.42-2.23-.33-1.15.2-2.17,1.29-2.78,1.03-.58,2.07-.52,2.96.23.99.83,1.89,1.77,2.8,2.69,5.94,5.93,11.87,11.87,17.81,17.8.16.16.35.29.45.37,0,0,.02,0,.03,0,3.19-1.52,6.24-3.14,9.41-4.45,7.73-3.17,15.81-4.69,24.18-4.46,6.13.17,12.3.1,18.39.69,7.93.77,15.27,3.63,22.16,7.6.95.55,1.46.46,2.19-.28,6.25-6.31,12.54-12.59,18.81-18.87.14-.14.28-.26.42-.4,1.56-1.5,3.07-1.67,4.28-.49,1.19,1.16.99,2.86-.54,4.4-3.19,3.19-6.38,6.38-9.57,9.57-2.99,2.99-5.98,5.97-8.96,8.96-.23.23-.43.47-.71.78-.01.01-.01.03,0,.05,17.41,13.55,26.04,31.27,25.89,53.39,0,.02-.01.03-.03.03h-136.07s-.03-.01-.03-.03ZM2440.12,1950.04h125.06s.03-.02.03-.03c-.18-1.89-.33-3.6-.49-5.32-.04-.41-.13-1.07-.21-1.48-2.79-14.58-9.91-26.6-21.69-35.78-8.52-6.64-18.17-10.73-28.96-11.64-5.68-.48-11.41-.4-17.12-.39-10.16.03-19.62,2.77-28.33,7.97-13.19,7.89-21.89,19.31-26.27,34.02-1.22,4.08-1.84,8.28-2.06,12.61,0,.02.01.03.03.03Z"/>
        <path class="cls-7" d="M2410.9,2007.99c0-12.58.12-25.16-.05-37.74-.09-6.8,5.37-10.71,9.75-10.69,6.22.03,10.56,4.27,10.58,10.61.03,13.54.01,27.08.01,40.62,0,11.52.01,23.05.01,34.57,0,5.53-3.24,9.6-8.44,10.63-5.69,1.13-11.41-3.16-11.79-8.97-.16-2.39-.07-4.8-.08-7.2,0-10.61,0-21.22,0-31.83ZM2425.79,2007.78h0c0-10.03.01-20.06,0-30.09,0-2.92.06-5.86-.19-8.77-.21-2.46-2.24-3.97-4.69-3.94-2.41.04-4.29,1.69-4.59,4.11-.11.85-.11,1.72-.11,2.59,0,21.84-.02,43.68-.01,65.51,0,3.17-.07,6.34.19,9.49.25,3.11,3.59,4.89,6.45,3.65,2.25-.97,2.95-2.84,2.95-5.13,0-12.48,0-24.96,0-37.43Z"/>
        <path class="cls-7" d="M2574.36,2008.43c0-12.58,0-25.16,0-37.74,0-5.1,2.32-8.84,6.41-10.45,6.7-2.63,13.84,2.21,13.93,9.49.06,5.33.01,10.66.01,15.99,0,19.98,0,39.95,0,59.93,0,4.92-3.21,9.21-7.56,10.17-5.13,1.13-9.76-.93-11.8-5.63-.75-1.73-.93-3.82-.95-5.75-.08-12-.04-24.01-.04-36.01h-.01ZM2589.32,2007.95c0-6.87,0-13.74,0-20.6,0-5.81.02-11.62-.02-17.43-.02-2.84-1.96-4.85-4.59-4.91-2.78-.06-4.76,1.82-4.92,4.71-.04.67-.02,1.34-.02,2.02,0,20.89,0,41.78,0,62.67,0,3.84-.09,7.69.04,11.52.14,3.91,3.94,6.04,7.16,4.11,1.73-1.03,2.35-2.66,2.35-4.63-.02-12.49,0-24.97,0-37.46Z"/>
        <path class="cls-7" d="M2542.43,1919.99c0,5.13-4,9.19-9.08,9.19-4.95,0-9.14-4.13-9.18-9.04-.03-5.06,4.07-9.21,9.11-9.22,5.16-.01,9.14,3.93,9.15,9.08ZM2533.46,1916.33c-2.09-.05-3.77,1.54-3.85,3.63-.08,1.98,1.69,3.8,3.71,3.82,1.99.02,3.69-1.61,3.73-3.6.05-2.15-1.5-3.81-3.59-3.85Z"/>
        <path class="cls-7" d="M2471.86,1910.94c5.14-.05,9.11,3.88,9.16,9.06.04,4.41-2.99,8.06-7.13,8.97-6.69,1.46-12.59-4.92-10.72-11.51,1.08-3.8,4.47-6.48,8.69-6.52ZM2475.66,1920.06c0-2.08-1.65-3.74-3.73-3.74-2.06,0-3.72,1.67-3.71,3.75,0,1.99,1.82,3.78,3.8,3.73,1.9-.04,3.65-1.84,3.65-3.74Z"/>
      </g>
    </g>
  </g>
</svg>