<?xml version="1.0" encoding="UTF-8"?>
<svg id="Layer_2" data-name="Layer 2" xmlns="http://www.w3.org/2000/svg" viewBox="0 0 1833.69 2044.97">
  <defs>
    <style>
      .cls-1 {
        fill: #002e32;
        stroke: aqua;
        stroke-miterlimit: 10;
        stroke-width: 8px;
      }

      .cls-1, .cls-2 {
        opacity: .94;
      }

      .cls-2 {
        fill: #003f39;
        font-family: MiriamMonoCLM-Bold, 'Miriam Mono CLM';
        font-size: 351px;
        font-weight: 700;
        letter-spacing: .17em;
        stroke: #2ff;
        stroke-width: 5px;
      }
    </style>
  </defs>
  <g id="Layer_1-2" data-name="Layer 1">
    <path class="cls-1" d="M912.81,5.23c-220.66,130.69-440.61,260.95-661.23,391.62-2.67,1.58-4.31,4.45-4.31,7.55v797.96c0,3.1,1.63,5.97,4.3,7.55,220.66,131.02,440.96,261.82,661.24,392.61,2.76,1.64,6.2,1.64,8.97,0,221.95-131.7,441.77-262.15,660.33-391.84,2.66-1.58,4.29-4.45,4.29-7.54V403.88c0-3.1-1.64-5.97-4.31-7.55C1361.79,265.85,1142.34,135.87,921.76,5.23c-2.76-1.63-6.19-1.63-8.95,0ZM1479.02,678.62c-24.89,14.57-49.96,29.24-77.82,45.54-5.85,3.42-13.21-.79-13.21-7.57v-194.21c0-3.1-1.63-5.97-4.29-7.55-154.56-91.99-307.32-182.9-461.79-274.83-2.77-1.65-6.22-1.65-8.99,0-153.79,91.52-307,182.69-459.93,273.69-2.66,1.58-4.28,4.44-4.28,7.54v327.28c0,3.09,1.62,5.95,4.27,7.53l463.67,277.15.75.44c183.96-109.42,367.92-218.84,551.88-328.26,5.85-3.48,13.26.74,13.26,7.54v331.65c0,3.1-1.63,5.96-4.29,7.54-184.08,109.21-369.61,219.29-556.37,330.09-2.76,1.64-6.2,1.64-8.96,0-186.48-110.58-372.56-220.91-558.33-331.07-2.66-1.58-4.3-4.45-4.3-7.54,0-16.38,0-68.9,0-95.27,0-6.8,7.41-11.01,13.27-7.54,184.6,109.56,366.26,217.38,549.36,326.05,2.76,1.64,6.21,1.64,8.97,0,154.01-91.55,306.32-182.08,459.32-273.03,2.66-1.58,4.29-4.45,4.29-7.55v-100.14c0-6.81-7.42-11.02-13.27-7.54-152.06,90.47-300.65,178.87-450.43,267.98-2.77,1.65-6.21,1.65-8.98,0-186.48-110.88-372.43-221.45-558.38-332.02-2.66-1.58-4.29-4.45-4.29-7.54v-443.36c0-3.1,1.63-5.96,4.3-7.54,185.01-109.6,371.08-219.84,558.2-330.69,2.76-1.63,6.19-1.63,8.95,0,186.71,110.56,372.29,220.45,557.46,330.11,2.67,1.58,4.3,4.45,4.3,7.55v207.99c0,3.12-1.65,6-4.34,7.57ZM1184.04,839.22v-202.04c0-3.09-1.62-5.95-4.27-7.53-85.69-51.26-171.23-102.43-257.9-154.28-2.77-1.66-6.24-1.66-9.02,0-86.92,51.86-173.01,103.21-258.38,154.14-2.65,1.58-4.27,4.44-4.27,7.52v202.2c0,6.81-7.41,11.02-13.26,7.54l-82.15-48.9c-2.66-1.58-4.29-4.45-4.29-7.54v-209.71c0-3.1,1.64-5.97,4.3-7.55,120.21-71.51,238.63-141.95,358.18-213.06,2.77-1.65,6.22-1.65,8.99,0,119.05,70.93,237.39,141.43,357.33,212.89,2.66,1.58,4.29,4.45,4.29,7.55v209.84c0,3.09-1.63,5.95-4.28,7.53l-82,48.92c-5.85,3.49-13.27-.72-13.27-7.53ZM753.32,910.63v-214.08c0-3.08,1.62-5.95,4.27-7.53,51.89-31.17,103.13-61.95,155.05-93.13,2.78-1.67,6.27-1.67,9.06,0,51.59,30.98,102.31,61.43,153.79,92.35,2.64,1.59,4.27,4.45,4.27,7.53v215.68c0,3.08-1.62,5.94-4.26,7.52-51.98,31.17-104.17,62.47-158.05,94.77h-.01c-53.39-31.93-106.61-63.75-159.84-95.58-2.65-1.58-4.27-4.44-4.27-7.53Z"/>
    <text class="cls-2" transform="translate(5.31 1951.21)"><tspan x="0" y="0">NextSSL</tspan></text>
  </g>
</svg>