<svg xmlns="http://www.w3.org/2000/svg" width="920" height="390" viewBox="0 0 920 390" role="img" aria-label="NextSSL planned algorithm surface comparison">
  <rect width="920" height="390" rx="10" fill="#ffffff"/>
  <rect x="1" y="1" width="918" height="388" rx="10" fill="none" stroke="#d0d7de"/>
  <text x="44" y="42" fill="#24292f" font-family="Segoe UI, Arial, sans-serif" font-size="22" font-weight="700">Planned algorithm surfaces</text>
  <text x="44" y="66" fill="#57606a" font-family="Segoe UI, Arial, sans-serif" font-size="13">Counts are from ALGO.md and include planned NEW surfaces.</text>
  <line x1="190" y1="90" x2="190" y2="355" stroke="#d0d7de"/>
  <g font-family="Segoe UI, Arial, sans-serif" font-size="14">
    <text x="44" y="113" fill="#24292f">Modern</text>
    <rect x="190" y="98" width="600" height="18" rx="2" fill="#0969da"/><text x="804" y="113" fill="#24292f" font-weight="700">83</text>
    <text x="44" y="148" fill="#24292f">Hash / KDF-hash</text>
    <rect x="190" y="133" width="427" height="18" rx="2" fill="#8250df"/><text x="631" y="148" fill="#24292f" font-weight="700">59</text>
    <text x="44" y="183" fill="#24292f">PQC</text>
    <rect x="190" y="168" width="296" height="18" rx="2" fill="#bf3989"/><text x="500" y="183" fill="#24292f" font-weight="700">41</text>
    <text x="44" y="218" fill="#24292f">Threshold</text>
    <rect x="190" y="203" width="260" height="18" rx="2" fill="#bc4c00"/><text x="464" y="218" fill="#24292f" font-weight="700">36</text>
    <text x="44" y="253" fill="#24292f">Encoding</text>
    <rect x="190" y="238" width="101" height="18" rx="2" fill="#1a7f37"/><text x="305" y="253" fill="#24292f" font-weight="700">14</text>
    <text x="44" y="288" fill="#24292f">Ascon</text>
    <rect x="190" y="273" width="51" height="18" rx="2" fill="#0969da" opacity="0.65"/><text x="255" y="288" fill="#24292f" font-weight="700">7</text>
    <text x="44" y="323" fill="#24292f">DRBG / RNG</text>
    <rect x="190" y="308" width="51" height="18" rx="2" fill="#9a6700"/><text x="255" y="323" fill="#24292f" font-weight="700">7</text>
    <text x="44" y="358" fill="#24292f">Stateful HBS</text>
    <rect x="190" y="343" width="14" height="18" rx="2" fill="#6e7781"/><text x="218" y="358" fill="#24292f" font-weight="700">2</text>
  </g>
</svg>
