<!-- Graph text uses Roboto Mono. Palette: warm dark + muted teal. -->
<svg xmlns="http://www.w3.org/2000/svg" width="1100" height="560" viewBox="0 0 1100 560" role="img" aria-label="NextSSL positioning compared with other crypto libraries">
  <rect width="1100" height="560" rx="12" fill="#181715"/>
  <rect x="1.5" y="1.5" width="1097" height="557" rx="12" fill="none" stroke="#5db8a6" stroke-width="3"/>
  <text x="56" y="58" fill="#faf9f5" font-family="Roboto Mono, monospace" font-size="30" font-weight="800">Library positioning model</text>
  <text x="56" y="92" fill="#cdebe6" font-family="Roboto Mono, monospace" font-size="17" font-weight="600">Qualitative comparison: archive breadth vs. production-default strictness.</text>

  <g stroke="#38514d" stroke-width="2">
    <line x1="140" y1="430" x2="1000" y2="430"/>
    <line x1="140" y1="430" x2="140" y2="130"/>
    <line x1="140" y1="355" x2="1000" y2="355" stroke-dasharray="5 8"/>
    <line x1="140" y1="280" x2="1000" y2="280" stroke-dasharray="5 8"/>
    <line x1="140" y1="205" x2="1000" y2="205" stroke-dasharray="5 8"/>
    <line x1="355" y1="430" x2="355" y2="130" stroke-dasharray="5 8"/>
    <line x1="570" y1="430" x2="570" y2="130" stroke-dasharray="5 8"/>
    <line x1="785" y1="430" x2="785" y2="130" stroke-dasharray="5 8"/>
  </g>

  <g font-family="Roboto Mono, monospace" font-size="15" fill="#faf9f5" font-weight="700">
    <text x="570" y="486" text-anchor="middle">archive breadth / algorithm catalog surface</text>
    <text x="42" y="284" transform="rotate(-90 42 284)" text-anchor="middle">default strictness / profile policy</text>
    <text x="140" y="461" text-anchor="middle" fill="#cdebe6">narrow</text>
    <text x="1000" y="461" text-anchor="middle" fill="#cdebe6">broad</text>
    <text x="106" y="435" text-anchor="end" fill="#cdebe6">low</text>
    <text x="106" y="135" text-anchor="end" fill="#cdebe6">high</text>
  </g>

  <g font-family="Roboto Mono, monospace" font-size="17" font-weight="700">
    <circle cx="292" cy="186" r="9" fill="#a09d96"/><text x="310" y="192" fill="#a09d96">libsodium</text>
    <circle cx="465" cy="192" r="9" fill="#b8c4c7"/><text x="483" y="198" fill="#b8c4c7">BoringSSL</text>
    <circle cx="528" cy="265" r="9" fill="#faf9f5"/><text x="546" y="271" fill="#faf9f5">wolfSSL</text>
    <circle cx="690" cy="282" r="9" fill="#a8d9d1"/><text x="708" y="288" fill="#a8d9d1">OpenSSL</text>
    <circle cx="765" cy="325" r="9" fill="#79c8bd"/><text x="783" y="331" fill="#79c8bd">Botan / Crypto++</text>
    <circle cx="910" cy="176" r="12" fill="#5db8a6"/><text x="932" y="183" fill="#5db8a6">NextSSL target</text>
  </g>

  <rect x="56" y="508" width="988" height="1.5" fill="#5db8a6"/>
  <text x="56" y="535" fill="#cdebe6" font-family="Roboto Mono, monospace" font-size="15">Positioning model only. Not a security audit, benchmark, or exact supported-algorithm count.</text>
</svg>
