<!-- use roboto mono for all text -->
<svg xmlns="http://www.w3.org/2000/svg" width="920" height="390" viewBox="0 0 920 390" role="img" aria-label="NextSSL planned algorithm surface comparison">
  <rect width="920" height="390" rx="10" fill="#202020"/>
  <rect x="1" y="1" width="918" height="388" rx="10" fill="none" stroke="#df8346"/>
  <text x="44" y="42" fill="#ffffff" font-family="Roboto Mono, monospace" font-size="22" font-weight="800">Planned algorithm surfaces</text>
  <text x="44" y="66" fill="#f1f1f1" font-family="Roboto Mono, monospace" font-size="13" font-weight="600">Counts are from ALGO.md and include planned NEW surfaces.</text>
  <line x1="190" y1="90" x2="190" y2="355" stroke="#df8346" stroke-width="2"/>
  <g font-family="Roboto Mono, monospace" font-size="14" font-weight="700">
    <text x="44" y="113" fill="#ffffff">Modern</text>
    <rect x="190" y="98" width="600" height="20" rx="3" fill="#0077ff"/><text x="804" y="114" fill="#ffffff" font-weight="900">83</text>
    <text x="44" y="148" fill="#ffffff">Hash / KDF-hash</text>
    <rect x="190" y="133" width="427" height="20" rx="3" fill="#8250df"/><text x="631" y="149" fill="#ffffff" font-weight="900">59</text>
    <text x="44" y="183" fill="#ffffff">PQC</text>
    <rect x="190" y="168" width="296" height="20" rx="3" fill="#e03a8a"/><text x="500" y="184" fill="#ffffff" font-weight="900">41</text>
    <text x="44" y="218" fill="#ffffff">Threshold</text>
    <rect x="190" y="203" width="260" height="20" rx="3" fill="#da7809"/><text x="464" y="219" fill="#ffffff" font-weight="900">36</text>
    <text x="44" y="253" fill="#ffffff">Encoding</text>
    <rect x="190" y="238" width="101" height="20" rx="3" fill="#00a164"/><text x="305" y="254" fill="#ffffff" font-weight="900">14</text>
    <text x="44" y="288" fill="#ffffff">Ascon</text>
    <rect x="190" y="273" width="51" height="20" rx="3" fill="#00a8ff"/><text x="255" y="289" fill="#ffffff" font-weight="900">7</text>
    <text x="44" y="323" fill="#ffffff">DRBG / RNG</text>
    <rect x="190" y="308" width="51" height="20" rx="3" fill="#df8346"/><text x="255" y="324" fill="#ffffff" font-weight="900">7</text>
    <text x="44" y="358" fill="#ffffff">Stateful HBS</text>
    <rect x="190" y="343" width="18" height="20" rx="3" fill="#ffffff"/><text x="222" y="359" fill="#ffffff" font-weight="900">2</text>
  </g>
</svg>
